<?xml version="1.0" encoding="utf-8"?>
<!-- Generator: Adobe Illustrator 17.1.0, SVG Export Plug-In . SVG Version: 6.00 Build 0)  -->
<!DOCTYPE svg PUBLIC "-//W3C//DTD SVG 1.1//EN" "http://www.w3.org/Graphics/SVG/1.1/DTD/svg11.dtd">
<svg version="1.1" id="Layer_1" xmlns="http://www.w3.org/2000/svg" xmlns:xlink="http://www.w3.org/1999/xlink" x="0px" y="0px"
	 viewBox="0 0 725 200" style="enable-background:new 0 0 725 200;" xml:space="preserve">
<style type="text/css">
	.st0{fill:#5D8432;}
</style>
<g>
	<path class="st0" d="M275.7,136.9H252l-0.9-7.7c0.8-1.1,2.5-2.1,5.1-3.1V83.7c-2.5-0.9-4.2-2-5.1-3.2l0.9-7.7h20.7
		c10,0,17.9,2.8,23.7,8.4c5.9,5.6,8.8,13.8,8.8,24.6c0,10.8-2.6,18.7-7.9,23.7C292,134.5,284.8,136.9,275.7,136.9z M269.6,126.8h6.7
		c4.6,0,8.3-1.4,11-4.2c2.7-2.8,4-8.3,4-16.4c0-15.5-5.9-23.2-17.6-23.2h-4.2V126.8z"/>
	<path class="st0" d="M311.4,90.5c3.5-0.8,6.7-1.2,9.7-1.2c3,0,5.5,0.1,7.5,0.3v37.1c2.4,0.9,4.1,2,5.1,3.2l-0.9,7.2h-21.4l-0.9-7.2
		c0.9-1.2,2.6-2.2,5.1-3.2v-25.8c-2.2-0.7-3.9-1.8-5.1-3.2L311.4,90.5z M321.9,84.1c-5.2,0-7.8-2.3-7.8-7c0-4.7,2.6-7,7.8-7
		c5.2,0,7.8,2.3,7.8,7C329.7,81.7,327.1,84.1,321.9,84.1z"/>
	<path class="st0" d="M338.3,90.5c3.4-0.7,6.5-1.1,9.2-1.1c2.7,0,5,0.1,6.8,0.2v4.6c1.5-1.3,3.6-2.4,6.2-3.2c2.6-0.8,5-1.3,7.4-1.3
		c6.1,0,10.3,1.4,12.8,4.3c2.4,2.9,3.7,7.8,3.7,14.8v17.8c2.4,0.9,4.1,2,5.1,3.2l-0.9,7.2h-21.4l-0.9-7.2c0.9-1.2,2.6-2.2,5.1-3.2
		v-18.4c0-3.3-0.5-5.6-1.6-6.7s-3-1.7-5.8-1.7c-2.8,0-5.6,1-8.4,3v23.9c2.4,0.9,4.1,2,5.1,3.2l-0.9,7.2h-21.4l-0.9-7.2
		c0.9-1.2,2.6-2.2,5.1-3.2v-25.8c-2.2-0.7-3.9-1.8-5.1-3.2L338.3,90.5z"/>
	<path class="st0" d="M414.2,137.7c-7.3,0-12.8-2-16.3-5.9c-3.5-3.9-5.3-9.8-5.3-17.7s2-13.9,5.9-18.1c3.9-4.2,9.6-6.3,17-6.3
		s12.8,1.9,16.4,5.6c3.6,3.7,5.3,9.5,5.3,17.4s-2,14-6,18.4C427.2,135.5,421.6,137.7,414.2,137.7z M406,113.3c0,9.9,3,14.9,8.9,14.9
		c3,0,5.3-1.1,6.7-3.4c1.5-2.3,2.2-6,2.2-11.1c0-9.7-3-14.5-9.1-14.5c-3,0-5.2,1.1-6.6,3.2C406.7,104.6,406,108.2,406,113.3z"/>
	<path class="st0" d="M460.6,98.1c-4.1,0-6.1,1.2-6.1,3.6c0,2.3,2.1,4,6.4,5.1l7.3,2c7.6,2,11.3,6.4,11.3,13.1
		c0,4.6-1.6,8.4-4.9,11.4c-3.3,2.9-8.4,4.4-15.5,4.4c-7.1,0-12.6-1-16.6-3c-0.1-0.7-0.1-1.4-0.1-2c0-3.4,0.7-6.5,2-9.2h7.7
		c0.8,1.5,1.3,3,1.6,4.6c1.2,0.4,3,0.6,5.3,0.6c5.5,0,8.2-1.5,8.2-4.6c0-1-0.4-1.8-1.1-2.5s-2.2-1.3-4.4-1.9l-7.3-2.1
		c-3.8-1.1-6.7-2.6-8.8-4.7c-2.1-2.1-3.2-5.1-3.2-9.2c0-4.1,1.6-7.4,4.9-10c3.3-2.6,8-3.9,14.1-3.9s11.3,0.9,15.5,2.7
		c0.1,0.6,0.1,1.2,0.1,1.9c0,3.2-0.7,6.2-2,8.9h-7.6c-0.8-1.4-1.3-2.9-1.6-4.5C464,98.3,462.3,98.1,460.6,98.1z"/>
	<path class="st0" d="M503.2,79c0-4.7,2.6-7.1,7.9-7.1c5.3,0,7.9,2.4,7.9,7.1c0,4.2-1.1,8-3.2,11.6c-2.1,3.6-4.6,6.4-7.6,8.5
		l-3.9-2.4c2-3.4,3.1-6.8,3.1-10c0-0.5,0-1-0.1-1.4c-1.2-0.4-2.2-1.1-2.9-2.3C503.6,81.8,503.2,80.5,503.2,79z"/>
	<path class="st0" d="M574.8,91.6c0,4.2-1.3,7.7-4,10.6c-2.6,2.9-5.9,5-9.9,6.5c3.1,1.3,5.1,2.9,6.1,4.7l6.8,12.9
		c2.9,1,4.9,2.1,5.9,3.4l-0.9,7.2h-15.7l-10.7-22.8c-1-2.3-2.1-3.4-3.4-3.4h-6v14.9c4.5,1,7.3,2.2,8.5,3.6l-0.9,7.7h-25.1l-0.9-7.7
		c0.8-1.1,2.5-2.1,5.1-3.1V83.7c-2.5-0.9-4.2-2-5.1-3.2l0.9-7.7h23.7c8.7,0.1,15.1,1.5,19.3,4.2C572.7,79.7,574.8,84.5,574.8,91.6z
		 M548.5,82.9H543v17.7h5.3c4.2,0,7.4-0.6,9.4-1.9c2.1-1.3,3.1-3.5,3.1-6.8c0-3.3-1.1-5.6-3.2-6.9C555.6,83.6,552.5,82.9,548.5,82.9
		z"/>
	<path class="st0" d="M583.1,79c0-4.7,2.6-7.1,7.9-7.1c5.3,0,7.9,2.4,7.9,7.1c0,4.2-1.1,8-3.2,11.6c-2.1,3.6-4.6,6.4-7.6,8.5
		l-3.9-2.4c2-3.4,3.1-6.8,3.1-10c0-0.5,0-1-0.1-1.4c-1.2-0.4-2.2-1.1-2.9-2.3C583.4,81.8,583.1,80.5,583.1,79z"/>
	<path class="st0" d="M666.8,131.8c-3.7,3.9-9.7,5.9-17.9,5.9s-14-1.9-17.3-5.8c-3.3-3.9-5-9.9-5-18.2v-30c-2.4-0.9-4.1-1.9-5.1-3.2
		l0.9-7.7h21.7l0.9,7.7c-1,1.2-2.7,2.2-5.1,3.2v30.4c0,4.5,0.7,7.8,2.2,9.9c1.5,2.1,4.1,3.2,7.9,3.2c3.8,0,6.4-1.1,8-3.3
		c1.5-2.2,2.3-5.5,2.3-9.8V83.7c-2.5-0.9-4.2-2-5.1-3.2l0.9-7.7h20.4l0.9,7.7c-1,1.2-2.7,2.2-5.1,3.2v30
		C672.3,121.8,670.4,127.9,666.8,131.8z"/>
	<path class="st0" d="M698.6,98.1c-4.1,0-6.1,1.2-6.1,3.6c0,2.3,2.1,4,6.4,5.1l7.3,2c7.6,2,11.3,6.4,11.3,13.1
		c0,4.6-1.6,8.4-4.9,11.4c-3.3,2.9-8.4,4.4-15.5,4.4c-7.1,0-12.6-1-16.6-3c-0.1-0.7-0.1-1.4-0.1-2c0-3.4,0.7-6.5,2-9.2h7.7
		c0.8,1.5,1.3,3,1.6,4.6c1.2,0.4,3,0.6,5.3,0.6c5.5,0,8.2-1.5,8.2-4.6c0-1-0.4-1.8-1.1-2.5s-2.2-1.3-4.4-1.9l-7.3-2.1
		c-3.8-1.1-6.7-2.6-8.8-4.7c-2.1-2.1-3.2-5.1-3.2-9.2c0-4.1,1.6-7.4,4.9-10c3.3-2.6,8-3.9,14.1-3.9s11.3,0.9,15.5,2.7
		c0.1,0.6,0.1,1.2,0.1,1.9c0,3.2-0.7,6.2-2,8.9h-7.6c-0.8-1.4-1.3-2.9-1.6-4.5C702.1,98.3,700.3,98.1,698.6,98.1z"/>
</g>
<path class="st0" d="M6.9,99.6c17.7,1.4,51.9-7.2,68.8-16.7c16.8-9.5,19.6-16.2,20.8-18.5c1.2-2.3,0.6-8,0.6-10.5
	c0-2.6,1.1-2.3,2.4-3.9c1.4-1.7,1.4-6,2.3-7.1c0.9-1.1,3.2,0.6,3.8-3c0.6-3.6,2.3-2.7,4.1-3.6c1.8-0.9,0-1.8,1.5-3.6
	c1.5-1.8,3.3-1.2,5.1-1.5c1.8-0.3,1.7-2.1,3.3-3.5c1.7-1.4,3,0.2,4.7,0.2s0.9-2.1,2.6-3.3c1.7-1.2,3,0.8,5,0.9
	c2,0.2,3.3-1.8,4.8-2.3c1.5-0.5,3.2,2.1,4.8,2.7c1.7,0.6,2.6-2.1,5-2c2.4,0.1,4.4,2.7,5.9,3.8c1.5,1.1,4.7-0.8,7.1-0.5
	c2.4,0.3,2.9,4.8,4.5,6c1.7,1.2,4.1-0.3,5.1,1.1c1.1,1.4,0.6,3.8,2,5.7c1.4,2,3.2,0.6,4.4,1.5c1.2,0.9,1.1,2,0.9,3.5
	c-0.2,1.5-0.8,1.7,1.9,3.2c2.7,1.5,2.1,4.5,1.7,5.1c-0.4,0.6,0,2.6,1.2,3c1.2,0.5,3.6,0.6,3,3c-0.6,2.4,0.5,3.9,0.5,3.9
	c9.5-11.1,19.4-8.4,20.6-9.3c1.2-0.9,5.1-2.6,6.3-2.3c1.2,0.3,8,4.1,10.1,4.1c2.1,0,2.7,0.7,3.3,1.1c0.6,0.5,1.9,2.2,2.7,2.6
	c2.1,1.1,3.9,2.2,3.9,2.2c5.6,3.5,3.6,4,7.2,5.2c4,1.3,3.1,4.7,3.1,4.7l-0.4,0.3c-0.1,0.2-0.3,0.7-0.7,0.8c0,0,0.5-0.8,0.1-1l-0.1,0
	c-0.1,0.2-0.2,0.4-0.5,0.5c0,0,0.2-0.3,0.1-0.6l-0.2-0.1c-0.1,0.2-0.2,0.6-0.5,0.7c0,0,0.2-0.4,0.1-0.8l-0.4-0.1
	c-0.1,0.2-0.2,0.5-0.5,0.5c0,0,0.2-0.3,0.1-0.7l-0.5-0.2c-0.1,0.2-0.2,0.4-0.5,0.5c0,0,0.2-0.3,0.1-0.6l-0.5-0.1
	c-0.1,0.2-0.2,0.4-0.4,0.5c0,0,0.1-0.3,0.1-0.6l-0.5-0.2c-0.1,0.2-0.2,0.5-0.5,0.6c0,0,0.2-0.3,0.1-0.7l-0.1,0
	c-0.1,0.2-0.2,0.6-0.5,0.7c0,0,0.2-0.4,0.1-0.8l-0.2-0.1c-0.1,0.2-0.2,0.4-0.4,0.5c0,0,0.1-0.2,0.1-0.6l-0.5-0.2
	c-0.1,0.2-0.2,0.5-0.5,0.5c0,0,0.2-0.3,0.1-0.6l-0.2-0.1c-0.1,0.2-0.2,0.4-0.4,0.4c0,0,0.1-0.2,0.1-0.5l-0.3-0.1
	c-0.1,0.2-0.2,0.4-0.5,0.5c0,0,0.2-0.3,0.1-0.6l-0.5-0.2c-0.1,0.2-0.2,0.4-0.5,0.5c0,0,0.2-0.3,0.1-0.6l-0.3-0.1
	c-0.1,0.2-0.2,0.4-0.4,0.4c0,0,0.1-0.2,0.1-0.5l-0.4-0.1c-0.1,0.2-0.2,0.5-0.5,0.6c0,0,0.2-0.3,0.1-0.7l-0.4-0.1
	c0,0.1-0.1,0.7-0.6,0.8c0,0,0.3-0.5,0-1l-1,0l0.2,0.4l0.9,0.8c0.2-0.2,0.3-0.4,0.3-0.4c0.1,0.2,0,0.3,0,0.5h0
	c0.2-0.2,0.3-0.3,0.3-0.3c0.1,0.1,0,0.3,0,0.4c0.1-0.1,0.2-0.3,0.2-0.3c0.1,0.1,0,0.3,0,0.4l0.5,0.2c0.2-0.2,0.3-0.4,0.3-0.4
	c0.1,0.2,0,0.3,0,0.5l0.1,0c0.2-0.2,0.3-0.4,0.3-0.4c0.1,0.2,0,0.3,0,0.5l0.2,0.1c0.2-0.2,0.3-0.4,0.3-0.4c0.1,0.2,0,0.4,0,0.5
	l0.4,0.1c0.3-0.2,0.4-0.4,0.4-0.4c0.1,0.2,0,0.4-0.1,0.6l0.5,0.2c0.3-0.2,0.4-0.5,0.4-0.5c0.1,0.2,0,0.4-0.1,0.6
	c0.5-0.1,0.7-0.5,0.7-0.5c0.1,0.3,0,0.5-0.2,0.7l0.2,0.1c0.4-0.2,0.6-0.5,0.6-0.5c0.1,0.2,0,0.5-0.1,0.7l0.4,0.2
	c0.3-0.2,0.4-0.4,0.4-0.4c0.1,0.2,0,0.4-0.1,0.5l0.3,0.1c0.2-0.2,0.3-0.4,0.3-0.4c0.1,0.2,0,0.3,0,0.5l0.1,0.1
	c0.2-0.2,0.4-0.4,0.4-0.4c0.1,0.2,0,0.4-0.1,0.5l0.2,0.1c0.4-0.2,0.5-0.5,0.5-0.5c0.1,0.2,0,0.5-0.1,0.6c0.5-0.1,0.7-0.5,0.7-0.5
	c0.1,0.3,0,0.5-0.2,0.7l0.1,0.1c0.2-0.2,0.3-0.4,0.3-0.4c0.1,0.2,0,0.3,0,0.5l0.1,0c0.3-0.2,0.4-0.4,0.4-0.4c0.1,0.2,0,0.4-0.1,0.5
	l0.4,0.1c0.2-0.2,0.3-0.4,0.3-0.4c0.1,0.2,0,0.3,0,0.5l0.1,0c0,0,0.2,0.8-1.6,1.9c-1.1,0.7-10.4-1.7-10.4-1.7c-1.1,0-7.3,2-11.5,4.5
	c-2.3,1.4-9.3,1.7-12.2,1.8c-2.9,0.2-7.7,6.2-8.7,8c-1.1,1.8-6,6.8-6,6.8c1.1,1.1,6.8,5.7,7.4,6.3c0.6,0.6,0,0.8,0,1.4
	c0,0.6,0.5,1.7,0.6,2.1c0.1,0.5,0,2.4,0,3c0,0.6-1.4,1.8-2.9,2.7c-1.5,0.9-2.7,0-2.7,0c0.6,0,2-2.4,2-2.4s0-2.3-0.5-3.3
	c-0.5-1.1-1.4-1.4-2.6-2.1c-1.2-0.8-4.7-2.4-5.7-3.2c-1.1-0.8-3.6-2.1-3.6-2.1s-0.2,2.1,0.1,2.6c0.3,0.5,5.9,4.7,6.5,5.1
	c0.6,0.5,5.1,5.7,1.8,7.7c-3.3,2-5.6,0.3-5.6,0.3c3-1.7,2.6-3.6,2.4-4.1c-0.1-0.5-4.8-2.9-4.8-2.9c-10.8-4.1-8.9-9.2-8.9-9.2
	c-3.2-0.6-12,1.1-15.9,2.7c-3.9,1.7-14,3.5-14,3.5c-5,7.2-14,11.6-14.3,13.2c-0.3,1.7,5,9.6,5.7,10.1c0.8,0.5,4.4,2.9,6.9,3.2
	c2.6,0.3,3,4.1,3,4.1c-0.9-0.5-7.2-2.1-6.9-1.6c0.3,0.4,0.9,1.2,0.9,1.2c-1.4,0-4.2-0.8-5.7-1.8c-1.5-1.1-3.6-2.1-5.3-3.3
	c-1.7-1.2-4.8-6-6.9-9.5c-2.1-3.5-2.6-7.4-1.7-8.1c0.9-0.8,6.2-8,6.2-8c-7.4,0.6-16.7-3.9-16.7-3.9c-1.8,1.5-2.4,6-12.5,10.1
	c-10.1,4.1-12.8,5.9-15,7.7c-2.3,1.8-2,5-2,6.5c0,1.5,1.8,3.9,4.4,5.4c2.6,1.5,3,3.9,3,3.9s-1.2,0.5-3,0c-1.8-0.5-4.4-0.9-7.5-3
	c-3.2-2.1-3.8-5-3.3-6c0.5-1.1,1.1-4.5,1.2-7.2c0.2-2.7,0.2-3.6,2.1-4.7c2-1.1,6.8-6.2,6.8-6.2C52,111.4,8.6,103,6.5,101.4
	C4.4,99.7,6.9,99.6,6.9,99.6z"/>
<g>
</g>
<g>
</g>
<g>
</g>
<g>
</g>
<g>
</g>
<g>
</g>
<g>
</g>
<g>
</g>
<g>
</g>
<g>
</g>
<g>
</g>
<g>
</g>
<g>
</g>
<g>
</g>
<g>
</g>
</svg>
